<?xml version="1.0" standalone="no"?>
<!DOCTYPE svg PUBLIC "-//W3C//DTD SVG 20010904//EN"
 "http://www.w3.org/TR/2001/REC-SVG-20010904/DTD/svg10.dtd">
<svg version="1.0" xmlns="http://www.w3.org/2000/svg"
 width="360.000000pt" height="360.000000pt" viewBox="0 0 360.000000 360.000000"
 preserveAspectRatio="xMidYMid meet">

<g transform="translate(0.000000,360.000000) scale(0.100000,-0.100000)"
fill="#000000" stroke="none">
<path d="M585 3118 c-3 -13 -4 -617 -3 -1343 l3 -1320 1210 -3 c1129 -2 1211
-1 1223 15 15 21 18 2036 2 2077 l-9 26 -583 2 -583 3 0 270 c0 149 -4 276 -8
283 -6 9 -143 12 -627 12 l-620 0 -5 -22z m1175 -1323 l0 -1265 -145 0 -145 0
0 328 c0 242 -3 331 -12 340 -13 13 -411 18 -442 6 -14 -5 -16 -45 -16 -340
l0 -334 -167 2 -168 3 -3 1263 -2 1262 550 0 550 0 0 -1265z m1180 -285 l0
-980 -165 0 -165 0 0 324 c0 282 -2 327 -16 340 -13 14 -47 16 -222 16 -114 0
-214 -5 -222 -10 -13 -8 -15 -59 -18 -340 l-3 -330 -142 0 -142 0 0 980 0 980
548 0 547 0 0 -980z m-1555 -431 c4 -22 4 -155 0 -295 l-8 -254 -148 0 -149 0
0 293 c0 162 2 296 4 298 2 2 70 3 149 1 l145 -3 7 -40z m1133 -253 l2 -296
-150 0 -150 0 0 293 c0 162 2 296 4 298 2 2 69 3 148 2 l143 -2 3 -295z"/>
<path d="M756 2944 c-13 -13 -16 -45 -16 -199 0 -172 1 -185 19 -195 29 -15
374 -13 389 2 8 8 12 67 12 200 0 175 -1 188 -19 198 -12 6 -93 10 -195 10
-145 0 -177 -3 -190 -16z m318 -124 c-1 -25 -2 -78 -3 -117 l-1 -73 -120 0
-120 0 0 120 0 121 122 -3 123 -3 -1 -45z"/>
<path d="M1277 2942 c-15 -16 -17 -45 -17 -198 0 -127 4 -184 12 -192 17 -17
379 -17 396 0 8 8 12 66 12 194 0 153 -3 185 -16 198 -13 13 -45 16 -193 16
-160 0 -180 -2 -194 -18z m321 -192 l-3 -120 -122 0 -123 0 0 120 0 120 125 0
125 0 -2 -120z"/>
<path d="M756 2374 c-13 -13 -16 -45 -16 -190 0 -102 4 -183 10 -195 10 -18
23 -19 198 -19 133 0 192 4 200 12 8 8 12 67 12 200 0 175 -1 188 -19 198 -12
6 -93 10 -195 10 -145 0 -177 -3 -190 -16z m315 -86 c2 -20 2 -67 0 -150 l-1
-78 -120 0 -120 0 0 120 0 120 120 0 c89 0 120 -3 121 -12z"/>
<path d="M1277 2372 c-15 -16 -17 -45 -17 -191 0 -100 4 -180 10 -192 10 -18
23 -19 198 -19 133 0 192 4 200 12 8 8 12 67 12 200 0 175 -1 188 -19 198 -12
6 -93 10 -194 10 -156 0 -176 -2 -190 -18z m320 -192 l-2 -120 -100 0 c-55 0
-110 -3 -122 -6 -23 -6 -23 -6 -23 120 l0 126 125 0 125 0 -3 -120z"/>
<path d="M757 1802 c-15 -16 -17 -45 -17 -191 0 -100 4 -180 10 -192 10 -18
23 -19 198 -19 133 0 192 4 200 12 8 8 12 67 12 200 0 175 -1 188 -19 198 -12
6 -93 10 -194 10 -156 0 -176 -2 -190 -18z m314 -104 c2 -18 3 -75 1 -126 l-3
-94 -117 4 -117 3 -3 123 -3 122 120 0 119 0 3 -32z"/>
<path d="M1277 1802 c-15 -16 -17 -45 -17 -191 0 -100 4 -180 10 -192 10 -18
23 -19 198 -19 133 0 192 4 200 12 8 8 12 67 12 200 0 175 -1 188 -19 198 -12
6 -93 10 -194 10 -156 0 -176 -2 -190 -18z m319 -192 c-1 -66 -3 -120 -6 -121
-3 -1 -58 -3 -122 -4 l-118 -4 0 125 0 124 124 0 123 0 -1 -120z"/>
<path d="M1937 2372 c-25 -27 -25 -362 -1 -386 13 -13 45 -16 198 -16 128 0
186 4 194 12 17 17 17 379 0 396 -8 8 -66 12 -193 12 -164 0 -184 -2 -198 -18z
m321 -193 l-3 -122 -110 1 c-60 1 -116 2 -122 2 -10 0 -13 31 -13 120 l0 120
125 0 126 0 -3 -121z"/>
<path d="M2457 2372 c-25 -27 -25 -362 -1 -386 13 -13 45 -16 198 -16 128 0
186 4 194 12 8 8 12 67 12 200 0 175 -1 188 -19 198 -12 6 -93 10 -194 10
-156 0 -176 -2 -190 -18z m323 -176 c0 -57 -3 -111 -6 -120 -5 -13 -26 -16
-125 -16 l-119 0 0 120 0 120 125 0 125 0 0 -104z"/>
<path d="M1936 1798 c-23 -33 -23 -359 0 -382 13 -13 45 -16 198 -16 128 0
186 4 194 12 17 17 17 379 0 396 -8 8 -66 12 -194 12 -178 0 -183 -1 -198 -22z
m322 -190 l-3 -123 -109 -2 c-59 -1 -114 1 -122 4 -11 4 -14 32 -14 124 l0
119 125 0 126 0 -3 -122z"/>
<path d="M2457 1802 c-15 -16 -17 -45 -17 -191 0 -100 4 -180 10 -192 10 -18
23 -19 198 -19 133 0 192 4 200 12 8 8 12 67 12 200 0 175 -1 188 -19 198 -12
6 -93 10 -194 10 -156 0 -176 -2 -190 -18z m322 -172 c2 -157 11 -147 -127
-146 l-117 1 -3 123 -3 122 125 0 124 0 1 -100z"/>
<path d="M1289 881 c-21 -16 -22 -22 -11 -45 19 -42 82 -30 82 15 0 18 -25 49
-40 49 -4 0 -18 -8 -31 -19z"/>
<path d="M2429 881 c-21 -16 -22 -22 -11 -45 19 -42 82 -31 82 14 0 16 -29 50
-42 50 -3 0 -16 -8 -29 -19z"/>
</g>
</svg>
