<?xml version="1.0" standalone="no"?>
<!DOCTYPE svg PUBLIC "-//W3C//DTD SVG 20010904//EN"
 "http://www.w3.org/TR/2001/REC-SVG-20010904/DTD/svg10.dtd">
<svg version="1.0" xmlns="http://www.w3.org/2000/svg"
 width="860.000000pt" height="603.000000pt" viewBox="0 0 860.000000 603.000000"
 preserveAspectRatio="xMidYMid meet">

<g transform="translate(0.000000,603.000000) scale(0.100000,-0.100000)"
fill="#000000" stroke="none">
<path d="M597 5589 c-64 -15 -116 -48 -144 -91 l-28 -42 0 -2442 0 -2442 30
-44 c19 -26 52 -55 85 -73 l55 -30 3710 0 3710 0 55 30 c33 18 66 47 85 73
l30 44 0 2436 0 2437 -25 45 c-19 34 -39 51 -84 75 l-60 30 -3690 2 c-2129 0
-3707 -3 -3729 -8z m7109 -4256 c-2 -2 -282 210 -622 472 -340 262 -632 484
-648 493 -21 11 -55 17 -106 17 -64 0 -82 -4 -122 -28 -110 -64 -137 -192 -58
-280 16 -17 346 -275 734 -572 388 -297 705 -543 706 -547 0 -5 -1466 -8
-3257 -8 l-3258 0 25 24 c14 12 318 252 675 531 358 279 667 524 688 544 51
48 67 80 67 136 0 83 -45 147 -130 183 -56 23 -152 18 -204 -11 -25 -14 -324
-243 -665 -511 -341 -267 -623 -486 -626 -486 -3 0 -5 763 -5 1695 0 932 2
1695 5 1695 2 0 651 -498 1442 -1107 1536 -1182 1512 -1164 1679 -1207 237
-61 494 -36 709 69 78 38 283 195 1530 1175 l1440 1132 3 -1703 c1 -936 0
-1704 -2 -1706z"/>
</g>
</svg>
