<?xml version="1.0" standalone="no"?>
<!DOCTYPE svg PUBLIC "-//W3C//DTD SVG 20010904//EN"
 "http://www.w3.org/TR/2001/REC-SVG-20010904/DTD/svg10.dtd">
<svg version="1.0" xmlns="http://www.w3.org/2000/svg"
 width="225.000000pt" height="225.000000pt" viewBox="0 0 225.000000 225.000000"
 preserveAspectRatio="xMidYMid meet">

<g transform="translate(0.000000,225.000000) scale(0.100000,-0.100000)"
fill="#000000" stroke="none">
<path d="M257 2219 c-94 -22 -179 -96 -213 -185 -18 -47 -19 -87 -19 -914 l0
-865 24 -52 c27 -61 93 -126 159 -156 l47 -22 870 0 870 0 57 28 c65 32 121
89 152 156 21 46 21 48 21 916 l0 870 -22 47 c-30 66 -95 132 -156 159 l-52
24 -850 2 c-476 1 -867 -3 -888 -8z m1318 -354 c68 -18 115 -44 166 -92 l36
-34 81 30 c45 16 82 28 82 26 0 -2 -16 -31 -35 -65 -19 -34 -35 -64 -35 -67 0
-3 27 -3 60 -1 l61 4 -69 -70 -70 -71 -5 -100 c-16 -296 -122 -537 -328 -744
-186 -187 -401 -281 -699 -306 -143 -12 -351 23 -483 82 -61 27 -61 42 -2 43
99 1 242 54 375 138 54 34 61 42 45 48 -111 40 -204 84 -245 116 -14 11 -44
43 -68 71 l-42 52 97 5 98 5 -84 53 c-149 95 -224 186 -247 301 -7 35 -12 36
89 -8 27 -12 50 -21 53 -21 2 0 -17 33 -41 74 -74 121 -98 196 -98 301 -1 50
5 103 11 118 l12 29 50 -55 c130 -143 414 -283 650 -322 148 -24 136 -31 135
83 0 69 5 112 18 150 38 107 137 194 257 226 72 19 103 19 175 1z"/>
</g>
</svg>
